<svg xmlns="http://www.w3.org/2000/svg" width="64" height="64" viewBox="0 0 64 64" version="1.1"><path d="" stroke="none" fill="#080404" fill-rule="evenodd"/><path d="M 8.290 2 C 8.002 3.100, 7.205 4, 6.518 4 C 5.832 4, 4.084 4.933, 2.635 6.073 L 0 8.145 0 27.500 L 0 46.855 2.635 48.927 C 5.046 50.824, 6.601 51, 20.934 51 L 36.598 51 37.795 54.309 C 41.867 65.571, 56.594 67.146, 62.233 56.923 C 65.929 50.224, 63.130 42.219, 55.750 38.379 L 53 36.949 53 22.097 C 53 6.268, 52.849 5.753, 47.839 4.496 C 46.381 4.130, 44.964 2.969, 44.688 1.915 C 44.029 -0.607, 40.956 -0.548, 40.290 2 C 39.802 3.867, 38.926 4, 27.124 4 C 15.564 4, 14.374 3.829, 13.232 2 C 12.545 0.900, 11.270 -0, 10.398 -0 C 9.526 -0, 8.577 0.900, 8.290 2 M 10 5.500 C 10 7.657, 10.404 8.869, 11 8.500 C 11.550 8.160, 12 6.810, 12 5.500 C 12 4.190, 11.550 2.840, 11 2.500 C 10.404 2.131, 10 3.343, 10 5.500 M 42.252 5.500 C 42.263 7.700, 42.468 8.482, 42.707 7.238 C 42.946 5.994, 42.937 4.194, 42.687 3.238 C 42.437 2.282, 42.241 3.300, 42.252 5.500 M 2 31.418 C 2 38.798, 2.273 45.548, 2.607 46.418 C 3.128 47.777, 5.669 48, 20.607 48 C 34.984 48, 38 47.753, 38 46.577 C 38 43.955, 43.107 39.048, 47.074 37.860 L 51 36.683 51 27.342 L 51 18 26.500 18 L 2 18 2 31.418 M 15 26 C 15 27.313, 14.333 28, 13.059 28 C 11.991 28, 10.840 28.450, 10.500 29 C 10.132 29.595, 11.323 30, 13.441 30 C 16.729 30, 17 29.771, 17 27 C 17 25.350, 16.550 24, 16 24 C 15.450 24, 15 24.900, 15 26 M 28 26 C 28 27.313, 27.333 28, 26.059 28 C 24.991 28, 23.840 28.450, 23.500 29 C 23.132 29.595, 24.323 30, 26.441 30 C 29.729 30, 30 29.771, 30 27 C 30 25.350, 29.550 24, 29 24 C 28.450 24, 28 24.900, 28 26 M 41 26 C 41 27.313, 40.333 28, 39.059 28 C 37.991 28, 36.840 28.450, 36.500 29 C 36.132 29.595, 37.323 30, 39.441 30 C 42.729 30, 43 29.771, 43 27 C 43 25.350, 42.550 24, 42 24 C 41.450 24, 41 24.900, 41 26 M 15 37.930 C 15 39.171, 14.196 39.975, 12.750 40.180 C 9.602 40.628, 10.409 42.500, 13.750 42.500 C 16.122 42.500, 16.543 42.053, 16.813 39.250 C 16.989 37.424, 16.661 36, 16.063 36 C 15.479 36, 15 36.869, 15 37.930 M 28 37.930 C 28 39.171, 27.196 39.975, 25.750 40.180 C 22.602 40.628, 23.409 42.500, 26.750 42.500 C 29.122 42.500, 29.543 42.053, 29.813 39.250 C 29.989 37.424, 29.661 36, 29.063 36 C 28.479 36, 28 36.869, 28 37.930 M 50.189 44.677 C 51.117 44.922, 52.068 46.108, 52.302 47.311 C 52.652 49.113, 52.752 49.014, 52.864 46.750 C 52.976 44.494, 52.596 44.021, 50.750 44.116 C 49.156 44.198, 48.992 44.362, 50.189 44.677 M 48 48.500 C 48 48.775, 48.225 49, 48.500 49 C 48.775 49, 49 48.775, 49 48.500 C 49 48.225, 48.775 48, 48.500 48 C 48.225 48, 48 48.225, 48 48.500 M 44.116 50.750 C 44.021 52.596, 44.494 52.976, 46.750 52.864 C 49.014 52.752, 49.113 52.652, 47.311 52.302 C 46.108 52.068, 44.922 51.117, 44.677 50.189 C 44.362 48.992, 44.198 49.156, 44.116 50.750 M 52.136 54.750 C 52.248 57.014, 52.348 57.113, 52.698 55.311 C 52.943 54.048, 54.048 52.943, 55.311 52.698 C 57.113 52.348, 57.014 52.248, 54.750 52.136 C 52.354 52.018, 52.018 52.354, 52.136 54.750" stroke="none" fill="#040404" fill-rule="evenodd"/></svg>