<svg xmlns="http://www.w3.org/2000/svg" width="64" height="64" viewBox="0 0 64 64" version="1.1"><path d="" stroke="none" fill="#080404" fill-rule="evenodd"/><path d="M 11.500 4.204 C 2.166 7.458, -2.190 17.958, 1.158 29.134 L 2.317 33 9.560 33 C 16.800 33, 16.803 32.999, 18.902 29.441 C 20.057 27.484, 21.431 26.148, 21.955 26.472 C 22.480 26.796, 24.126 29.298, 25.613 32.031 C 27.101 34.764, 28.584 36.989, 28.909 36.975 C 29.234 36.961, 31.624 32.426, 34.220 26.897 C 36.817 21.369, 39.339 17.091, 39.825 17.392 C 40.312 17.693, 41.946 21.327, 43.456 25.469 L 46.203 33 54.022 33 L 61.841 33 62.497 30.011 C 62.858 28.368, 63.569 26.766, 64.077 26.452 C 64.585 26.139, 65 23.407, 65 20.382 C 65 17.357, 64.598 15.130, 64.107 15.434 C 63.615 15.738, 62.958 14.970, 62.647 13.728 C 61.743 10.130, 55.905 5.220, 51 3.934 C 45.134 2.395, 39.532 3.874, 35.208 8.101 L 32 11.237 28.802 8.111 C 24.049 3.464, 17.721 2.035, 11.500 4.204 M 0.310 21.500 C 0.315 24.800, 0.502 26.029, 0.725 24.232 C 0.947 22.435, 0.943 19.735, 0.715 18.232 C 0.486 16.729, 0.304 18.200, 0.310 21.500 M 34.162 37 C 31.894 41.950, 29.607 46, 29.078 46 C 28.550 46, 26.655 43.256, 24.867 39.902 C 22.102 34.714, 21.442 34.042, 20.448 35.402 C 19.581 36.588, 17.569 37, 12.640 37 C 8.988 37, 6 37.414, 6 37.920 C 6 40.280, 29.417 61, 32.084 61 C 34.555 61, 58 40.033, 58 37.823 C 58 37.417, 54.549 36.953, 50.330 36.792 L 42.661 36.500 41.247 32.250 C 40.469 29.913, 39.485 28, 39.059 28 C 38.633 28, 36.430 32.050, 34.162 37" stroke="none" fill="#040404" fill-rule="evenodd"/></svg>