<svg xmlns="http://www.w3.org/2000/svg" width="64" height="64" viewBox="0 0 64 64" version="1.1"><path d="" stroke="none" fill="#080404" fill-rule="evenodd"/><path d="M 21.871 8.508 C 19.196 9.962, 16 16.302, 16 20.154 C 16 24.617, 18.480 30.215, 21.717 33.056 L 25.088 36.016 22.544 36.983 C 20.625 37.713, 20 38.664, 20 40.853 C 20 42.449, 20.675 44.315, 21.500 45 C 22.325 45.685, 22.993 47.202, 22.985 48.372 C 22.971 50.387, 22.905 50.372, 21.735 48.079 C 20.035 44.747, 18.177 44.384, 17.062 47.166 C 16.135 49.479, 16.126 49.481, 16.063 47.300 C 16.029 46.090, 16.712 44.701, 17.582 44.214 C 18.606 43.641, 19.047 42.300, 18.832 40.414 L 18.500 37.500 13.801 41.830 C 9.421 45.867, 8.109 48.301, 6.571 55.250 L 5.962 58 27.481 58 L 49 58 48.978 55.250 C 48.945 51.065, 45.676 44.748, 41.892 41.554 L 38.500 38.691 38.189 42.919 C 38.018 45.245, 38.406 47.784, 39.051 48.561 C 40.517 50.327, 39.583 53, 37.500 53 C 35.478 53, 34.404 50.196, 35.867 48.733 C 36.490 48.110, 37 45.484, 37 42.898 C 37 38.526, 36.780 38.119, 33.861 37.101 L 30.721 36.007 33.381 33.915 C 37.983 30.295, 39.391 26.172, 39.106 17.150 C 38.947 12.139, 33.466 6.987, 28.350 7.040 C 26.233 7.062, 23.317 7.723, 21.871 8.508 M 45 29 C 42.022 31.978, 42.333 37.330, 45.635 39.927 C 47.084 41.067, 49.354 42, 50.680 42 C 54.010 42, 58 37.759, 58 34.220 C 58 28.071, 49.387 24.613, 45 29 M 50.136 31.680 C 50.048 33.088, 49.203 34.014, 47.750 34.294 C 45.516 34.725, 45.516 34.729, 47.680 34.864 C 49.088 34.952, 50.014 35.797, 50.294 37.250 C 50.725 39.484, 50.729 39.484, 50.864 37.320 C 50.952 35.912, 51.797 34.986, 53.250 34.706 C 55.484 34.275, 55.484 34.271, 53.320 34.136 C 51.912 34.048, 50.986 33.203, 50.706 31.750 C 50.275 29.516, 50.271 29.516, 50.136 31.680 M 36 50.500 C 36 51.325, 36.675 52, 37.500 52 C 38.325 52, 39 51.325, 39 50.500 C 39 49.675, 38.325 49, 37.500 49 C 36.675 49, 36 49.675, 36 50.500 M 16 51.500 C 16 51.775, 16.225 52, 16.500 52 C 16.775 52, 17 51.775, 17 51.500 C 17 51.225, 16.775 51, 16.500 51 C 16.225 51, 16 51.225, 16 51.500 M 21 51.500 C 21 51.775, 21.225 52, 21.500 52 C 21.775 52, 22 51.775, 22 51.500 C 22 51.225, 21.775 51, 21.500 51 C 21.225 51, 21 51.225, 21 51.500" stroke="none" fill="#040404" fill-rule="evenodd"/></svg>