<svg xmlns="http://www.w3.org/2000/svg" width="64" height="64" viewBox="0 0 64 64" version="1.1"><path d="" stroke="none" fill="#080404" fill-rule="evenodd"/><path d="M 43.750 14.080 C 42.346 14.898, 42 16.489, 42 22.127 C 42 28.601, 42.236 29.390, 45 32.154 C 47.511 34.665, 48 35.946, 48 40.020 C 48 43.915, 47.556 45.197, 45.777 46.443 C 42.631 48.647, 41 48.376, 41 45.648 C 41 42.525, 37.234 37.074, 33.195 34.353 C 30.757 32.709, 29.254 32.349, 27.219 32.919 C 25.724 33.338, 23.314 33.355, 21.864 32.957 C 15.938 31.331, 8.415 38.579, 7.807 46.500 L 7.500 50.500 26.838 50.500 L 46.176 50.500 48.588 47.694 C 50.463 45.514, 51 43.740, 51 39.732 C 51 35.323, 51.393 34.262, 53.710 32.414 C 56.120 30.492, 56.466 29.445, 56.833 22.953 C 57.183 16.759, 56.971 15.452, 55.432 14.326 C 53.300 12.768, 46.258 12.619, 43.750 14.080 M 20.302 15.012 C 17.208 16.258, 14.725 21.469, 15.513 25.061 C 16.360 28.915, 20.436 32, 24.680 32 C 32.671 32, 36.135 21.816, 29.923 16.589 C 26.746 13.915, 24.101 13.482, 20.302 15.012 M 49.136 20.680 C 49.048 22.088, 48.203 23.014, 46.750 23.294 C 44.522 23.723, 44.521 23.729, 46.677 23.864 C 47.874 23.939, 49.059 24.788, 49.311 25.750 C 49.717 27.305, 49.781 27.314, 49.884 25.823 C 49.948 24.901, 50.788 23.941, 51.750 23.689 C 53.311 23.281, 53.319 23.219, 51.820 23.116 C 50.895 23.052, 49.944 21.988, 49.706 20.750 C 49.275 18.516, 49.271 18.516, 49.136 20.680" stroke="none" fill="#040404" fill-rule="evenodd"/></svg>